# xmcd
#
# Track frame offsets: 
#        150
#        17088
#        29641
#        41139
#        64930
#        77157
#        95711
#        107886
#        121006
#        133788
#        143984
#        153072
#        163239
#        174679
#        184930
#        193558
#        204726
#        215186
#        229049
#        244159
#        254569
#        261391
#
# Disc length: 3628 seconds
#
# Revision: 2
# Processed by: cddbd v1.5.2PL0 Copyright (c) Steve Scherf et al.
# Submitted via: ExactAudioCopy v1.0b4
#
DISCID=540e2a16
DTITLE=Various Artist - Roots of the Country Outlaws CD2
DYEAR=2011
DGENRE=Country
TTITLE0=The Flatlanders - One Day At A Time
TTITLE1=The Flatlanders - Keeper Of The Mountain
TTITLE2=The Flatlanders - Waiting For A Train
TTITLE3=The Sir Douglas Quintet - A Whiter Shade Of Pale
TTITLE4=The Sir Douglas Quintet - Night Train
TTITLE5=The Sir Douglas Quintet - Ain't That Lovin' You
TTITLE6=Freddy Fender - You 'll Lose A Good Thing
TTITLE7=Freddy Fender - The Girl Who Waits On Tables
TTITLE8=Freddy Fender - Since I Meet You Baby
TTITLE9=Jonny Horton - Honky Tonk Mind (The Woman I Need)
TTITLE10=Jonny Horton - I'm A One Woman Man
TTITLE11=Jonny Cash - Get Rhytm
TTITLE12=Jonny Cash - Big River
TTITLE13=Jonyy Cash - I Was There When It Happened
TTITLE14=Waylon Jennings - Abilene
TTITLE15=Waylon Jennings - Big Mamou
TTITLE16=Waylon Jennings - White Lightning
TTITLE17=Willie Nelson - A Moment Isn't Very Long
TTITLE18=Willie Nelson - Face Of A Fighter
TTITLE19=Willie Nelson - Blame It On The Times
TTITLE20=Willie Nelson - Both Ends Of The Candle
TTITLE21=Willie Nelson - Go Away
EXTD=YEAR: 2011
EXTT0=
EXTT1=
EXTT2=
EXTT3=
EXTT4=
EXTT5=
EXTT6=
EXTT7=
EXTT8=
EXTT9=
EXTT10=
EXTT11=
EXTT12=
EXTT13=
EXTT14=
EXTT15=
EXTT16=
EXTT17=
EXTT18=
EXTT19=
EXTT20=
EXTT21=
PLAYORDER=
